<svg version="1.1" xmlns="http://www.w3.org/2000/svg" viewBox="0 0 479.8667296297399 577.0084498321394" width="479.8667296297399" height="577.0084498321394">
  <!-- svg-source:excalidraw -->
  
  <defs>
    <style class="style-fonts">
      @font-face {
        font-family: "Virgil";
        src: url("https://excalidraw.com/Virgil.woff2");
      }
      @font-face {
        font-family: "Cascadia";
        src: url("https://excalidraw.com/Cascadia.woff2");
      }
    </style>
  </defs>
  <g stroke-linecap="round" transform="translate(10 39.26648493680818) rotate(0 229.93336481486995 263.8709824476656)"><path d="M-0.21 0.62 C174.39 -0.05, 348.41 0.22, 459.41 0.85 M0.45 -0.1 C120.84 -1.95, 242.15 -2.2, 459.8 0.27 M459.28 0.46 C459.36 192.6, 460.06 383.37, 459.87 527.3 M460.1 0.23 C458.82 185.68, 458.58 371.95, 459.86 527.97 M459.06 528.17 C277.14 529.09, 95.87 528.53, 0.61 528.48 M459.54 527.6 C348.35 525.84, 235.6 525.73, 0.39 527.9 M-0.28 527.64 C-0.31 329.78, 0.29 132.44, -0.28 0.6 M0.31 527.39 C-1.42 356.13, -1.09 184.82, -0.32 -0.21" stroke="#000000" stroke-width="1" fill="none"></path></g><g transform="translate(37.767907932757225 53.59253902814356) rotate(0 46.5 12.5)"><text x="0" y="18" font-family="Virgil, Segoe UI Emoji" font-size="20px" fill="#000000" text-anchor="start" style="white-space: pre;" direction="ltr">daily logs</text></g><g stroke-linecap="round" transform="translate(22.668133441473856 102.23629527695886) rotate(0 216.34651777052204 51.76192581333822)"><path d="M-0.44 0.78 C119.23 -0.63, 235.97 0.5, 433.6 -0.06 M433.23 -0.37 C433.72 30.34, 433.85 62.61, 433.14 103.56 M432.52 103.54 C265.54 101.98, 97.95 101.48, -0.92 103.23 M1.06 105.39 C-0.8 80.93, -1.02 53.83, -0.25 1.42" stroke="#d9480f" stroke-width="1.5" fill="none" stroke-dasharray="8 9"></path></g><g transform="translate(33.59998245916495 109.6635687815704) rotate(0 52.5 12.5)"><text x="0" y="18" font-family="Virgil, Segoe UI Emoji" font-size="20px" fill="#000000" text-anchor="start" style="white-space: pre;" direction="ltr">Sunday log</text></g><g stroke-linecap="round" transform="translate(31.950090828313932 143.6058002431003) rotate(0 203.9438841317144 23.437732579758233)"><path d="M-1.07 0.09 C133 -0.67, 267.04 -0.33, 407.44 0.59 M408.78 -1.87 C408.11 16.59, 407.21 35.35, 409.63 46.37 M408.14 47.89 C268.3 47.96, 129.73 49.84, -0.19 47.41 M-1.14 47.63 C0.32 34.43, 1.65 19.67, 1.53 0.03" stroke="#000000" stroke-width="1.5" fill="none" stroke-dasharray="8 9"></path></g><g transform="translate(49.78282757402121 154.97553510316715) rotate(0 98.5 12.5)"><text x="0" y="18" font-family="Virgil, Segoe UI Emoji" font-size="20px" fill="#000000" text-anchor="start" style="white-space: pre;" direction="ltr">today i called Amos</text></g><g stroke-linecap="round" transform="translate(23.753311206337003 222.55195585158918) rotate(0 216.34651777052204 162.98737885860817)"><path d="M0.45 -0.11 C156.54 1.6, 314.49 0.72, 431.88 -0.05 M432.9 1.38 C431.73 78.92, 430.35 154.92, 431.55 326.74 M432.8 325.67 C282.86 325.17, 133.33 325.97, -0.06 326.48 M1.06 325.55 C-1.15 201.23, -0.92 74.29, -0.39 0.47" stroke="#d9480f" stroke-width="1.5" fill="none" stroke-dasharray="8 9"></path></g><g transform="translate(34.685160224028095 229.97080079103665) rotate(0 54 12.5)"><text x="0" y="18" font-family="Virgil, Segoe UI Emoji" font-size="20px" fill="#000000" text-anchor="start" style="white-space: pre;" direction="ltr">Monday log</text></g><g stroke-linecap="round" transform="translate(32.91305439829921 263.91303225256667) rotate(0 203.9438841317144 23.437732579758233)"><path d="M-0.77 1.1 C111.69 0.4, 222.51 0.2, 407.21 -1.11 M409.74 1.52 C407.82 14.6, 406.3 32.69, 408.81 45.6 M407.7 46.51 C294.06 46.7, 180.26 46.75, 0.94 47.2 M-0.72 48.06 C-0.74 36.57, -0.93 28.56, -0.52 -0.29" stroke="#000000" stroke-width="1.5" fill="none" stroke-dasharray="8 9"></path></g><g transform="translate(50.868005338884814 275.2827671126336) rotate(0 136 12.5)"><text x="0" y="18" font-family="Virgil, Segoe UI Emoji" font-size="20px" fill="#000000" text-anchor="start" style="white-space: pre;" direction="ltr">today i will do great things</text></g><g stroke-linecap="round" transform="translate(34.55451746398785 325.65859350264844) rotate(0 203.9438841317144 103.49224450731145)"><path d="M-0.37 -0.18 C162.93 -1.82, 326.37 -1.48, 407.89 -0.29 M408.23 1.38 C407.17 83.47, 404.39 163.17, 406.59 208.67 M407.86 206.97 C295.93 205.45, 185.01 204.58, 1.03 206.53 M-1.25 205.41 C-2.29 138.58, -0.63 71.61, 0.44 0.59" stroke="#000000" stroke-width="1.5" fill="none" stroke-dasharray="8 9"></path></g><g transform="translate(48.59861416848162 334.56718733483086) rotate(0 108 12.5)"><text x="0" y="18" font-family="Virgil, Segoe UI Emoji" font-size="20px" fill="#000000" text-anchor="start" style="white-space: pre;" direction="ltr">Shoping list for today</text></g><g stroke-linecap="round" transform="translate(44.65615281302553 369.4534180947275) rotate(0 192.61167826873293 23.437732579758233)"><path d="M0.03 0.29 C150.11 -0.62, 298.31 -1.15, 384.96 0.63 M385.17 1.47 C384.88 12.35, 387.1 25.25, 386.69 46.13 M384.73 47.73 C261.03 47.26, 134.36 45.91, -0.65 47.96 M1 46.58 C-1.19 33.26, -1 17.05, -0.78 -1.29" stroke="#364fc7" stroke-width="1.5" fill="none" stroke-dasharray="8 9"></path></g><g transform="translate(63.70260294234686 380.95800999741806) rotate(0 22 12.5)"><text x="0" y="18" font-family="Virgil, Segoe UI Emoji" font-size="20px" fill="#000000" text-anchor="start" style="white-space: pre;" direction="ltr">eggs</text></g><g stroke-linecap="round" transform="translate(42.49422584846252 427.2733751196818) rotate(0 192.61167826873293 23.437732579758233)"><path d="M1.03 0.03 C109.46 2.38, 218.42 2, 385.5 0.84 M383.67 -1 C385.35 16.45, 383.5 30.78, 385.67 47.03 M385.37 47.87 C245.25 46.58, 104.32 45.58, 0.3 45.72 M-1.56 45.44 C-0.04 30, -1.01 11.48, -1.57 -1.79" stroke="#364fc7" stroke-width="1.5" fill="none" stroke-dasharray="8 9"></path></g><g transform="translate(61.40581893516037 438.6304671320026) rotate(0 18.5 12.5)"><text x="0" y="18" font-family="Virgil, Segoe UI Emoji" font-size="20px" fill="#000000" text-anchor="start" style="white-space: pre;" direction="ltr">Milk</text></g><g stroke-linecap="round" transform="translate(45.21243811385011 482.177048597896) rotate(0 192.61167826873293 23.437732579758233)"><path d="M-1.04 -0.79 C78.16 -1.85, 158.05 -2.16, 384.56 -0.93 M385.01 -0.11 C383.65 12.23, 386.35 22.56, 384.05 44.97 M385.97 46.39 C268.73 49.07, 153.63 49.07, 0.69 45.99 M1.42 45.8 C-1.69 35.05, -1.66 21.69, 1.23 1.01" stroke="#364fc7" stroke-width="1.5" fill="none" stroke-dasharray="8 9"></path></g><g transform="translate(64.01024557083292 493.53414061021675) rotate(0 30.5 12.5)"><text x="0" y="18" font-family="Virgil, Segoe UI Emoji" font-size="20px" fill="#000000" text-anchor="start" style="white-space: pre;" direction="ltr">Bread</text></g><g transform="translate(33.785410892771324 10) rotate(0 76 12.5)"><text x="0" y="18" font-family="Virgil, Segoe UI Emoji" font-size="20px" fill="#000000" text-anchor="start" style="white-space: pre;" direction="ltr">Document view </text></g></svg>